<svg width="222" height="180" viewBox="0 0 222 180" fill="none" xmlns="http://www.w3.org/2000/svg">
<g filter="url(#filter0_d_41_27)">
<rect x="80" y="56.0049" width="62.1562" height="58.8042" rx="29.4021" fill="url(#paint0_linear_41_27)"/>
<g filter="url(#filter1_f_41_27)">
<rect x="80.8071" y="56.7686" width="60.5418" height="57.2768" rx="28.6384" fill="url(#paint1_linear_41_27)"/>
<rect x="81.0063" y="56.9679" width="60.1434" height="56.8784" rx="28.4392" stroke="url(#paint2_linear_41_27)" stroke-width="0.398438"/>
</g>
<g filter="url(#filter2_f_41_27)">
<path fill-rule="evenodd" clip-rule="evenodd" d="M100.181 73.7608C100.181 75.7642 98.3736 77.3883 96.1445 77.3883C93.9155 77.3883 92.1084 75.7642 92.1084 73.7608C92.1084 71.7573 93.9155 70.1332 96.1445 70.1332C98.3736 70.1332 100.181 71.7573 100.181 73.7608ZM92.1084 102.972H99.5464V79.2975H92.1084V102.972ZM119.381 102.972H126.819V89.603C126.819 86.4046 126.033 84.1271 124.454 82.4297C122.884 80.7346 120.829 80.0598 118.288 80.0598C114.946 80.0598 112.508 81.665 110.984 84.0324H110.83L110.376 79.2975H104.505C104.604 81.665 104.505 102.972 104.505 102.972H111.943V88.147C112.558 86.3075 113.783 85.389 115.714 85.389C118.151 85.389 119.381 87.0296 119.381 90.3251V102.972Z" fill="#0B4C8C"/>
</g>
<mask id="path-5-inside-1_41_27" fill="white">
<path fill-rule="evenodd" clip-rule="evenodd" d="M103.41 71.8515C103.41 73.855 101.602 75.4791 99.3734 75.4791C97.1443 75.4791 95.3373 73.855 95.3373 71.8515C95.3373 69.8481 97.1443 68.224 99.3734 68.224C101.602 68.224 103.41 69.8481 103.41 71.8515ZM95.3373 101.063H102.775V77.3883H95.3373V101.063ZM122.61 101.063H130.048V87.6938C130.048 84.4954 129.262 82.2179 127.683 80.5204C126.113 78.8253 124.058 78.1506 121.517 78.1506C118.174 78.1506 115.737 79.7557 114.212 82.1232H114.059L113.605 77.3883H107.734C107.833 79.7557 107.734 101.063 107.734 101.063H115.172V86.2378C115.787 84.3983 117.012 83.4797 118.943 83.4797C121.38 83.4797 122.61 85.1204 122.61 88.4158V101.063Z"/>
</mask>
<path fill-rule="evenodd" clip-rule="evenodd" d="M103.41 71.8515C103.41 73.855 101.602 75.4791 99.3734 75.4791C97.1443 75.4791 95.3373 73.855 95.3373 71.8515C95.3373 69.8481 97.1443 68.224 99.3734 68.224C101.602 68.224 103.41 69.8481 103.41 71.8515ZM95.3373 101.063H102.775V77.3883H95.3373V101.063ZM122.61 101.063H130.048V87.6938C130.048 84.4954 129.262 82.2179 127.683 80.5204C126.113 78.8253 124.058 78.1506 121.517 78.1506C118.174 78.1506 115.737 79.7557 114.212 82.1232H114.059L113.605 77.3883H107.734C107.833 79.7557 107.734 101.063 107.734 101.063H115.172V86.2378C115.787 84.3983 117.012 83.4797 118.943 83.4797C121.38 83.4797 122.61 85.1204 122.61 88.4158V101.063Z" fill="white" fill-opacity="0.9"/>
<path d="M102.775 101.063V101.461H103.174V101.063H102.775ZM95.3373 101.063H94.9389V101.461H95.3373V101.063ZM102.775 77.3883H103.174V76.9899H102.775V77.3883ZM95.3373 77.3883V76.9899H94.9389V77.3883H95.3373ZM130.048 101.063V101.461H130.446V101.063H130.048ZM122.61 101.063H122.212V101.461H122.61V101.063ZM127.683 80.5204L127.39 80.7911L127.391 80.7918L127.683 80.5204ZM114.212 82.1232V82.5216H114.43L114.547 82.3389L114.212 82.1232ZM114.059 82.1232L113.662 82.1612L113.697 82.5216H114.059V82.1232ZM113.605 77.3883L114.002 77.3503L113.967 76.9899H113.605V77.3883ZM107.734 77.3883V76.9899H107.318L107.336 77.405L107.734 77.3883ZM107.734 101.063L107.336 101.061L107.334 101.461H107.734V101.063ZM115.172 101.063V101.461H115.57V101.063H115.172ZM115.172 86.2378L114.794 86.1115L114.774 86.173V86.2378H115.172ZM99.3734 75.8775C101.781 75.8775 103.808 74.1139 103.808 71.8515H103.011C103.011 73.596 101.424 75.0806 99.3734 75.0806V75.8775ZM94.9388 71.8515C94.9388 74.1139 96.9653 75.8775 99.3734 75.8775V75.0806C97.3233 75.0806 95.7357 73.596 95.7357 71.8515H94.9388ZM99.3734 67.8256C96.9653 67.8256 94.9388 69.5891 94.9388 71.8515H95.7357C95.7357 70.1071 97.3233 68.6224 99.3734 68.6224V67.8256ZM103.808 71.8515C103.808 69.5891 101.781 67.8256 99.3734 67.8256V68.6224C101.424 68.6224 103.011 70.1071 103.011 71.8515H103.808ZM102.775 100.664H95.3373V101.461H102.775V100.664ZM102.377 77.3883V101.063H103.174V77.3883H102.377ZM95.3373 77.7867H102.775V76.9899H95.3373V77.7867ZM95.7358 101.063V77.3883H94.9389V101.063H95.7358ZM130.048 100.664H122.61V101.461H130.048V100.664ZM129.65 87.6938V101.063H130.446V87.6938H129.65ZM127.391 80.7918C128.883 82.395 129.65 84.5639 129.65 87.6938H130.446C130.446 84.4268 129.641 82.0408 127.974 80.249L127.391 80.7918ZM121.517 78.549C123.982 78.549 125.917 79.2002 127.39 80.7911L127.975 80.2497C126.309 78.4504 124.134 77.7522 121.517 77.7522V78.549ZM114.547 82.3389C116.006 80.0746 118.322 78.549 121.517 78.549V77.7522C118.027 77.7522 115.469 79.4369 113.877 81.9074L114.547 82.3389ZM114.059 82.5216H114.212V81.7247H114.059V82.5216ZM113.208 77.4263L113.662 82.1612L114.455 82.0852L114.002 77.3503L113.208 77.4263ZM107.734 77.7867H113.605V76.9899H107.734V77.7867ZM107.734 101.063C108.132 101.065 108.132 101.065 108.132 101.064C108.132 101.064 108.132 101.064 108.132 101.064C108.132 101.063 108.132 101.062 108.132 101.061C108.132 101.058 108.132 101.054 108.132 101.049C108.133 101.039 108.133 101.024 108.133 101.003C108.133 100.963 108.133 100.903 108.133 100.825C108.134 100.668 108.135 100.438 108.136 100.144C108.139 99.557 108.142 98.7154 108.146 97.698C108.154 95.6634 108.163 92.9258 108.17 90.1142C108.182 84.499 108.182 78.5668 108.132 77.3716L107.336 77.405C107.385 78.5772 107.385 84.4823 107.373 90.1124C107.367 92.9235 107.357 95.6606 107.349 97.695C107.346 98.7122 107.342 99.5537 107.34 100.141C107.338 100.434 107.337 100.664 107.337 100.821C107.336 100.899 107.336 100.959 107.336 101C107.336 101.02 107.336 101.035 107.336 101.045C107.336 101.051 107.336 101.054 107.336 101.057C107.336 101.058 107.336 101.059 107.336 101.06C107.336 101.06 107.336 101.06 107.336 101.061C107.336 101.061 107.336 101.061 107.734 101.063ZM115.172 100.664H107.734V101.461H115.172V100.664ZM114.774 86.2378V101.063H115.57V86.2378H114.774ZM118.943 83.0813C117.913 83.0813 117.035 83.3271 116.328 83.848C115.621 84.3682 115.12 85.1352 114.794 86.1115L115.55 86.3641C115.838 85.5009 116.258 84.8889 116.8 84.4899C117.341 84.0916 118.042 83.8782 118.943 83.8782V83.0813ZM123.008 88.4158C123.008 86.7301 122.696 85.3952 122.01 84.474C121.308 83.5309 120.26 83.0813 118.943 83.0813V83.8782C120.063 83.8782 120.849 84.2489 121.371 84.9499C121.909 85.6729 122.212 86.8062 122.212 88.4158H123.008ZM123.008 101.063V88.4158H122.212V101.063H123.008Z" fill="url(#paint3_linear_41_27)" mask="url(#path-5-inside-1_41_27)"/>
</g>
<defs>
<filter id="filter0_d_41_27" x="0.3125" y="0.223694" width="221.531" height="218.179" filterUnits="userSpaceOnUse" color-interpolation-filters="sRGB">
<feFlood flood-opacity="0" result="BackgroundImageFix"/>
<feColorMatrix in="SourceAlpha" type="matrix" values="0 0 0 0 0 0 0 0 0 0 0 0 0 0 0 0 0 0 127 0" result="hardAlpha"/>
<feOffset dy="23.9062"/>
<feGaussianBlur stdDeviation="39.8438"/>
<feComposite in2="hardAlpha" operator="out"/>
<feColorMatrix type="matrix" values="0 0 0 0 0 0 0 0 0 0 0 0 0 0 0 0 0 0 0.15 0"/>
<feBlend mode="normal" in2="BackgroundImageFix" result="effect1_dropShadow_41_27"/>
<feBlend mode="normal" in="SourceGraphic" in2="effect1_dropShadow_41_27" result="shape"/>
</filter>
<filter id="filter1_f_41_27" x="76.8228" y="52.7843" width="68.5105" height="65.2456" filterUnits="userSpaceOnUse" color-interpolation-filters="sRGB">
<feFlood flood-opacity="0" result="BackgroundImageFix"/>
<feBlend mode="normal" in="SourceGraphic" in2="BackgroundImageFix" result="shape"/>
<feGaussianBlur stdDeviation="1.99219" result="effect1_foregroundBlur_41_27"/>
</filter>
<filter id="filter2_f_41_27" x="84.1396" y="62.1645" width="50.6482" height="48.7762" filterUnits="userSpaceOnUse" color-interpolation-filters="sRGB">
<feFlood flood-opacity="0" result="BackgroundImageFix"/>
<feBlend mode="normal" in="SourceGraphic" in2="BackgroundImageFix" result="shape"/>
<feGaussianBlur stdDeviation="3.98438" result="effect1_foregroundBlur_41_27"/>
</filter>
<linearGradient id="paint0_linear_41_27" x1="109.867" y1="113.282" x2="110.951" y2="59.2481" gradientUnits="userSpaceOnUse">
<stop stop-color="#004081"/>
<stop offset="1" stop-color="#5BA9F8"/>
</linearGradient>
<linearGradient id="paint1_linear_41_27" x1="111.078" y1="63.0691" x2="111.078" y2="107.745" gradientUnits="userSpaceOnUse">
<stop stop-color="#0A66C2" stop-opacity="0.56"/>
<stop offset="1" stop-color="#0A66C2"/>
</linearGradient>
<linearGradient id="paint2_linear_41_27" x1="111.078" y1="56.7686" x2="111.078" y2="114.045" gradientUnits="userSpaceOnUse">
<stop stop-color="#59ACFF"/>
<stop offset="1" stop-color="#013162"/>
</linearGradient>
<linearGradient id="paint3_linear_41_27" x1="112.693" y1="68.224" x2="112.693" y2="101.063" gradientUnits="userSpaceOnUse">
<stop stop-color="white"/>
<stop offset="1" stop-color="white" stop-opacity="0"/>
</linearGradient>
</defs>
</svg>
